<svg width="31" height="31" viewBox="0 0 31 31" fill="none" xmlns="http://www.w3.org/2000/svg">
<g clip-path="url(#clip0_26_289)">
<path d="M4.19165 5.6864C3.56937 6.30866 3.07576 7.0474 2.73899 7.86044C2.40222 8.67347 2.22888 9.54487 2.22888 10.4249C2.22888 11.3049 2.40222 12.1763 2.73899 12.9894C3.07576 13.8024 3.56937 14.5411 4.19165 15.1634L15.6313 26.6031L27.071 15.1634C28.3278 13.9067 29.0338 12.2022 29.0338 10.4249C29.0338 8.64761 28.3278 6.94313 27.071 5.6864C25.8143 4.42967 24.1098 3.72365 22.3326 3.72365C20.5553 3.72365 18.8508 4.42967 17.5941 5.6864L15.6313 7.64911L13.6686 5.6864C13.0464 5.06413 12.3076 4.57051 11.4946 4.23374C10.6816 3.89697 9.81017 3.72363 8.93014 3.72363C8.05012 3.72363 7.17872 3.89697 6.36569 4.23374C5.55265 4.57051 4.81391 5.06413 4.19165 5.6864Z" stroke="#2B2B28" stroke-width="2.97831" stroke-linecap="round" stroke-linejoin="round"/>
</g>
<defs>
<clipPath id="clip0_26_289">
<rect width="29.7831" height="29.7831" fill="white" transform="translate(0.739746 0.745117)"/>
</clipPath>
</defs>
</svg>
