<svg width="37" height="37" viewBox="0 0 37 37" fill="none" xmlns="http://www.w3.org/2000/svg">
<path d="M13.452 20.6338C13.7529 20.0322 13.9226 19.3531 13.9226 18.6354C13.9226 17.9176 13.7529 17.2385 13.452 16.6369M13.452 20.6338C13.0019 21.5338 12.261 22.2555 11.3495 22.6819C10.438 23.1084 9.40918 23.2145 8.42978 22.9833C7.45038 22.752 6.57775 22.1968 5.95327 21.4077C5.32878 20.6186 4.98901 19.6417 4.98901 18.6354C4.98901 17.629 5.32878 16.6522 5.95327 15.863C6.57775 15.0739 7.45038 14.5187 8.42978 14.2875C9.40918 14.0562 10.438 14.1624 11.3495 14.5888C12.261 15.0152 13.0019 15.7369 13.452 16.6369M13.452 20.6338L23.3281 25.5719M13.452 16.6369L23.3281 11.6989M23.3281 25.5719C22.7981 26.6319 22.7109 27.8591 23.0857 28.9834C23.4605 30.1078 24.2665 31.0372 25.3266 31.5672C26.3866 32.0972 27.6138 32.1844 28.7381 31.8097C29.8625 31.4349 30.7919 30.6288 31.3219 29.5688C31.8519 28.5087 31.9392 27.2815 31.5644 26.1572C31.1896 25.0328 30.3835 24.1034 29.3235 23.5734C28.7986 23.311 28.2272 23.1545 27.6418 23.1129C27.0564 23.0713 26.4686 23.1454 25.9119 23.331C24.7876 23.7057 23.8581 24.5118 23.3281 25.5719ZM23.3281 11.6989C23.5906 12.2237 23.9538 12.6916 24.3971 13.076C24.8404 13.4604 25.355 13.7537 25.9117 13.9392C26.4683 14.1248 27.0561 14.1988 27.6413 14.1572C28.2266 14.1155 28.7979 13.959 29.3227 13.6966C29.8475 13.4341 30.3155 13.0709 30.6999 12.6276C31.0843 12.1843 31.3776 11.6697 31.5631 11.113C31.7486 10.5564 31.8227 9.96863 31.781 9.38336C31.7394 8.79809 31.5829 8.22676 31.3204 7.70198C30.7904 6.64213 29.8611 5.83625 28.7369 5.4616C27.6127 5.08696 26.3857 5.17425 25.3258 5.70427C24.266 6.2343 23.4601 7.16363 23.0855 8.28784C22.7108 9.41204 22.7981 10.639 23.3281 11.6989Z" stroke="black" stroke-width="2.97831" stroke-linecap="round" stroke-linejoin="round"/>
</svg>
